<svg width="22" height="16" viewBox="0 0 22 16" fill="none" xmlns="http://www.w3.org/2000/svg">
<path d="M20.3335 0H1.66683C1.31321 0 0.974069 0.140476 0.72402 0.390524C0.473972 0.640573 0.333496 0.979711 0.333496 1.33333V14.6667C0.333496 15.0203 0.473972 15.3594 0.72402 15.6095C0.974069 15.8595 1.31321 16 1.66683 16H20.3335C20.6871 16 21.0263 15.8595 21.2763 15.6095C21.5264 15.3594 21.6668 15.0203 21.6668 14.6667V1.33333C21.6668 0.979711 21.5264 0.640573 21.2763 0.390524C21.0263 0.140476 20.6871 0 20.3335 0ZM19.3068 14.6667H2.7735L7.44016 9.84L6.48016 8.91333L1.66683 13.8933V2.34667L9.9535 10.5933C10.2033 10.8417 10.5412 10.9811 10.8935 10.9811C11.2457 10.9811 11.5837 10.8417 11.8335 10.5933L20.3335 2.14V13.8067L15.4268 8.9L14.4868 9.84L19.3068 14.6667ZM2.54016 1.33333H19.2535L10.8935 9.64667L2.54016 1.33333Z" fill="#F3F3F3"/>
</svg>
