<svg width="24" height="20" viewBox="0 0 24 20" fill="none" xmlns="http://www.w3.org/2000/svg">
<path d="M16.0383 1.5335C17.277 1.5335 18.3953 2.05195 19.1832 2.88431C20.1632 2.69031 21.0871 2.33682 21.9173 1.84722C21.5961 2.84484 20.9128 3.68178 20.0242 4.21125C20.8937 4.10659 21.7262 3.87808 22.4986 3.53647C21.9196 4.39298 21.1906 5.14713 20.3488 5.74983C20.3567 5.93271 20.3612 6.11751 20.3612 6.30152C20.3612 11.9501 16.0275 18.4652 8.10287 18.4652C5.67047 18.4652 3.40485 17.7552 1.49943 16.5429C1.84031 16.5834 2.1832 16.6036 2.52636 16.6034C4.54462 16.6034 6.40319 15.9206 7.878 14.7727C5.99167 14.7397 4.39955 13.5025 3.85348 11.8052C4.12092 11.8564 4.39243 11.8822 4.66453 11.8822C5.05619 11.8822 5.43772 11.8305 5.79827 11.7323C3.82762 11.3409 2.34232 9.61291 2.34232 7.54059V7.48579C2.92362 7.80631 3.58738 7.99878 4.29461 8.02102C3.138 7.25343 2.37755 5.94683 2.37755 4.46343C2.37755 3.67938 2.59045 2.94479 2.96112 2.31563C5.08544 4.90051 8.25993 6.6028 11.8411 6.78185C11.7672 6.46974 11.729 6.14004 11.729 5.8084C11.729 3.44704 13.658 1.5335 16.0383 1.5335ZM22.4986 3.53726H22.5023H22.4986ZM16.0383 0C13.0947 0 10.656 2.19997 10.2804 5.04249C7.87197 4.54752 5.68169 3.2432 4.10794 1.32965C3.96725 1.15845 3.79166 1.02081 3.59348 0.926365C3.39529 0.831924 3.17931 0.782974 2.96068 0.782948C2.92141 0.782958 2.88217 0.784493 2.84302 0.787549C2.60538 0.807017 2.3757 0.884072 2.17295 1.01234C1.9702 1.14061 1.80021 1.31641 1.67704 1.52521C1.15438 2.41235 0.87823 3.42855 0.878333 4.46434C0.878333 5.15561 0.999742 5.82886 1.22989 6.4584C0.984774 6.73713 0.843477 7.10175 0.843477 7.48668V7.5415C0.843477 9.04368 1.42403 10.4377 2.388 11.4825C2.33253 11.7455 2.34489 12.0208 2.4296 12.2845C2.76206 13.3193 3.36735 14.2111 4.15216 14.8904C3.62518 15.0105 3.08138 15.071 2.52629 15.071C2.23283 15.071 1.94724 15.0546 1.67701 15.0208C1.61705 15.0131 1.55783 15.0104 1.49824 15.0104C0.868588 15.0104 0.297031 15.4165 0.0848984 16.0357C-0.147847 16.7143 0.110408 17.4665 0.707053 17.8465C2.92135 19.2558 5.47891 20 8.10245 20C16.6297 20 21.7591 13.1713 21.8588 6.50091C22.5585 5.9087 23.1767 5.22232 23.6964 4.46046C23.8938 4.19536 24.0005 3.87123 24 3.538C24 3.0162 23.7448 2.55497 23.3561 2.27775C23.5244 1.6877 23.3325 1.04896 22.864 0.658655C22.5904 0.430916 22.255 0.31513 21.9177 0.31513C21.6547 0.314877 21.3964 0.385634 21.1688 0.520248C20.6733 0.812422 20.1434 1.04361 19.5853 1.21003C18.5756 0.432881 17.3238 2.39624e-05 16.0383 0Z" fill="#F3F3F3"/>
</svg>
